<svg width="250" height="250" viewBox="0 0 250 250" fill="none" xmlns="http://www.w3.org/2000/svg">
<circle cx="125" cy="125" r="125" fill="black"/>
<path d="M110.773 183.182C109.955 183.182 109.25 182.989 108.659 182.602C108.068 182.216 107.614 181.684 107.295 181.006C106.977 180.328 106.818 179.553 106.818 178.682C106.818 177.795 106.981 177.013 107.307 176.335C107.636 175.653 108.095 175.121 108.682 174.739C109.273 174.352 109.962 174.159 110.75 174.159C111.364 174.159 111.917 174.273 112.409 174.5C112.902 174.727 113.305 175.045 113.619 175.455C113.934 175.864 114.129 176.341 114.205 176.886H112.864C112.761 176.489 112.534 176.136 112.182 175.83C111.833 175.519 111.364 175.364 110.773 175.364C110.25 175.364 109.792 175.5 109.398 175.773C109.008 176.042 108.703 176.422 108.483 176.915C108.267 177.403 108.159 177.977 108.159 178.636C108.159 179.311 108.265 179.898 108.477 180.398C108.693 180.898 108.996 181.286 109.386 181.562C109.78 181.839 110.242 181.977 110.773 181.977C111.121 181.977 111.438 181.917 111.722 181.795C112.006 181.674 112.246 181.5 112.443 181.273C112.64 181.045 112.78 180.773 112.864 180.455H114.205C114.129 180.97 113.941 181.434 113.642 181.847C113.347 182.256 112.955 182.581 112.466 182.824C111.981 183.062 111.417 183.182 110.773 183.182ZM119.71 183.182C118.922 183.182 118.231 182.994 117.636 182.619C117.045 182.244 116.583 181.72 116.25 181.045C115.92 180.371 115.756 179.583 115.756 178.682C115.756 177.773 115.92 176.979 116.25 176.301C116.583 175.623 117.045 175.097 117.636 174.722C118.231 174.347 118.922 174.159 119.71 174.159C120.498 174.159 121.188 174.347 121.778 174.722C122.373 175.097 122.835 175.623 123.165 176.301C123.498 176.979 123.665 177.773 123.665 178.682C123.665 179.583 123.498 180.371 123.165 181.045C122.835 181.72 122.373 182.244 121.778 182.619C121.188 182.994 120.498 183.182 119.71 183.182ZM119.71 181.977C120.309 181.977 120.801 181.824 121.188 181.517C121.574 181.21 121.86 180.807 122.045 180.307C122.231 179.807 122.324 179.265 122.324 178.682C122.324 178.098 122.231 177.555 122.045 177.051C121.86 176.547 121.574 176.14 121.188 175.83C120.801 175.519 120.309 175.364 119.71 175.364C119.112 175.364 118.619 175.519 118.233 175.83C117.847 176.14 117.561 176.547 117.375 177.051C117.189 177.555 117.097 178.098 117.097 178.682C117.097 179.265 117.189 179.807 117.375 180.307C117.561 180.807 117.847 181.21 118.233 181.517C118.619 181.824 119.112 181.977 119.71 181.977ZM129.007 183.182C128.28 183.182 127.638 182.998 127.081 182.631C126.524 182.259 126.089 181.737 125.774 181.062C125.46 180.384 125.303 179.583 125.303 178.659C125.303 177.742 125.46 176.947 125.774 176.273C126.089 175.598 126.526 175.078 127.087 174.71C127.647 174.343 128.295 174.159 129.03 174.159C129.598 174.159 130.047 174.254 130.376 174.443C130.71 174.629 130.964 174.841 131.138 175.08C131.316 175.314 131.454 175.508 131.553 175.659H131.666V171.364H133.007V183H131.712V181.659H131.553C131.454 181.818 131.314 182.019 131.132 182.261C130.95 182.5 130.691 182.714 130.354 182.903C130.017 183.089 129.568 183.182 129.007 183.182ZM129.189 181.977C129.727 181.977 130.181 181.837 130.553 181.557C130.924 181.273 131.206 180.881 131.399 180.381C131.592 179.877 131.689 179.295 131.689 178.636C131.689 177.985 131.594 177.415 131.405 176.926C131.215 176.434 130.935 176.051 130.564 175.778C130.193 175.502 129.734 175.364 129.189 175.364C128.621 175.364 128.147 175.509 127.768 175.801C127.393 176.089 127.111 176.481 126.922 176.977C126.736 177.47 126.643 178.023 126.643 178.636C126.643 179.258 126.738 179.822 126.928 180.33C127.121 180.833 127.405 181.235 127.78 181.534C128.159 181.83 128.628 181.977 129.189 181.977ZM139.308 183.182C138.467 183.182 137.742 182.996 137.132 182.625C136.526 182.25 136.058 181.727 135.729 181.057C135.403 180.383 135.24 179.598 135.24 178.705C135.24 177.811 135.403 177.023 135.729 176.341C136.058 175.655 136.517 175.121 137.104 174.739C137.695 174.352 138.384 174.159 139.172 174.159C139.626 174.159 140.075 174.235 140.518 174.386C140.962 174.538 141.365 174.784 141.729 175.125C142.092 175.462 142.382 175.909 142.598 176.466C142.814 177.023 142.922 177.708 142.922 178.523V179.091H136.195V177.932H141.558C141.558 177.439 141.46 177 141.263 176.614C141.07 176.227 140.793 175.922 140.433 175.699C140.077 175.475 139.657 175.364 139.172 175.364C138.638 175.364 138.176 175.496 137.786 175.761C137.399 176.023 137.102 176.364 136.893 176.784C136.685 177.205 136.581 177.655 136.581 178.136V178.909C136.581 179.568 136.695 180.127 136.922 180.585C137.153 181.04 137.473 181.386 137.882 181.625C138.291 181.86 138.767 181.977 139.308 181.977C139.661 181.977 139.979 181.928 140.263 181.83C140.551 181.727 140.799 181.576 141.007 181.375C141.215 181.17 141.376 180.917 141.49 180.614L142.786 180.977C142.649 181.417 142.42 181.803 142.098 182.136C141.776 182.466 141.378 182.723 140.905 182.909C140.431 183.091 139.899 183.182 139.308 183.182Z" fill="#B60000"/>
<path d="M58.4545 90.1818H68.5455L92.2727 148.136H93.0909L116.818 90.1818H126.909V160H119V106.955H118.318L96.5 160H88.8636L67.0455 106.955H66.3636V160H58.4545V90.1818Z" fill="white"/>
<path d="M146.318 90.1818L167.045 148.955H167.864L188.591 90.1818H197.455L171.818 160H163.091L137.455 90.1818H146.318Z" fill="white"/>
</svg>
