<svg width="250" height="250" viewBox="0 0 250 250" fill="none" xmlns="http://www.w3.org/2000/svg">
<circle cx="125" cy="125" r="125" fill="black"/>
<path d="M119.489 160.511C118.106 160.511 116.851 160.251 115.724 159.73C114.598 159.2 113.703 158.438 113.04 157.443C112.377 156.439 112.045 155.227 112.045 153.807C112.045 152.557 112.292 151.544 112.784 150.767C113.277 149.981 113.935 149.366 114.759 148.92C115.582 148.475 116.491 148.144 117.486 147.926C118.49 147.699 119.498 147.519 120.511 147.386C121.837 147.216 122.912 147.088 123.736 147.003C124.569 146.908 125.175 146.752 125.554 146.534C125.942 146.316 126.136 145.937 126.136 145.398V145.284C126.136 143.883 125.753 142.794 124.986 142.017C124.228 141.241 123.078 140.852 121.534 140.852C119.934 140.852 118.679 141.203 117.77 141.903C116.861 142.604 116.222 143.352 115.852 144.148L112.67 143.011C113.239 141.686 113.996 140.653 114.943 139.915C115.9 139.167 116.941 138.646 118.068 138.352C119.205 138.049 120.322 137.898 121.42 137.898C122.121 137.898 122.926 137.983 123.835 138.153C124.754 138.314 125.639 138.651 126.491 139.162C127.353 139.673 128.068 140.445 128.636 141.477C129.205 142.509 129.489 143.892 129.489 145.625V160H126.136V157.045H125.966C125.739 157.519 125.36 158.026 124.83 158.565C124.299 159.105 123.594 159.564 122.713 159.943C121.832 160.322 120.758 160.511 119.489 160.511ZM120 157.5C121.326 157.5 122.443 157.24 123.352 156.719C124.271 156.198 124.962 155.526 125.426 154.702C125.9 153.878 126.136 153.011 126.136 152.102V149.034C125.994 149.205 125.682 149.361 125.199 149.503C124.725 149.635 124.176 149.754 123.551 149.858C122.936 149.953 122.334 150.038 121.747 150.114C121.17 150.18 120.701 150.237 120.341 150.284C119.47 150.398 118.655 150.582 117.898 150.838C117.15 151.084 116.544 151.458 116.08 151.96C115.625 152.453 115.398 153.125 115.398 153.977C115.398 155.142 115.829 156.023 116.69 156.619C117.562 157.206 118.665 157.5 120 157.5ZM138.107 138.182L143.335 147.102L148.562 138.182H152.425L145.38 149.091L152.425 160H148.562L143.335 151.534L138.107 160H134.244L141.175 149.091L134.244 138.182H138.107Z" fill="white"/>
<path d="M121.307 125.455C119.489 125.455 117.884 124.995 116.491 124.077C115.099 123.149 114.01 121.842 113.224 120.156C112.438 118.461 112.045 116.458 112.045 114.148C112.045 111.856 112.438 109.867 113.224 108.182C114.01 106.496 115.104 105.194 116.506 104.276C117.907 103.357 119.527 102.898 121.364 102.898C122.784 102.898 123.906 103.134 124.73 103.608C125.563 104.072 126.198 104.602 126.634 105.199C127.079 105.786 127.424 106.269 127.67 106.648H127.955V95.9091H131.307V125H128.068V121.648H127.67C127.424 122.045 127.074 122.547 126.619 123.153C126.165 123.75 125.516 124.285 124.673 124.759C123.83 125.223 122.708 125.455 121.307 125.455ZM121.761 122.443C123.106 122.443 124.242 122.093 125.17 121.392C126.098 120.682 126.804 119.702 127.287 118.452C127.77 117.192 128.011 115.739 128.011 114.091C128.011 112.462 127.775 111.037 127.301 109.815C126.828 108.584 126.127 107.628 125.199 106.946C124.271 106.255 123.125 105.909 121.761 105.909C120.341 105.909 119.157 106.274 118.21 107.003C117.273 107.723 116.567 108.703 116.094 109.943C115.63 111.174 115.398 112.557 115.398 114.091C115.398 115.644 115.634 117.055 116.108 118.324C116.591 119.583 117.301 120.587 118.239 121.335C119.186 122.074 120.36 122.443 121.761 122.443ZM147.06 125.455C144.957 125.455 143.144 124.991 141.619 124.062C140.104 123.125 138.935 121.818 138.111 120.142C137.296 118.456 136.889 116.496 136.889 114.261C136.889 112.027 137.296 110.057 138.111 108.352C138.935 106.638 140.08 105.303 141.548 104.347C143.026 103.381 144.749 102.898 146.719 102.898C147.855 102.898 148.977 103.087 150.085 103.466C151.193 103.845 152.202 104.46 153.111 105.312C154.02 106.155 154.744 107.273 155.284 108.665C155.824 110.057 156.094 111.771 156.094 113.807V115.227H139.276V112.33H152.685C152.685 111.098 152.438 110 151.946 109.034C151.463 108.068 150.772 107.306 149.872 106.747C148.982 106.188 147.931 105.909 146.719 105.909C145.384 105.909 144.228 106.241 143.253 106.903C142.287 107.557 141.544 108.409 141.023 109.46C140.502 110.511 140.241 111.638 140.241 112.841V114.773C140.241 116.42 140.526 117.817 141.094 118.963C141.671 120.099 142.472 120.966 143.494 121.562C144.517 122.15 145.705 122.443 147.06 122.443C147.94 122.443 148.736 122.32 149.446 122.074C150.166 121.818 150.786 121.439 151.307 120.938C151.828 120.426 152.23 119.792 152.514 119.034L155.753 119.943C155.412 121.042 154.839 122.008 154.034 122.841C153.229 123.665 152.235 124.309 151.051 124.773C149.867 125.227 148.537 125.455 147.06 125.455Z" fill="white"/>
<path d="M171.318 90.1818L192.045 148.955H192.864L213.591 90.1818H222.455L196.818 160H188.091L162.455 90.1818H171.318Z" fill="white"/>
<path d="M33.4545 90.1818H43.5455L67.2727 148.136H68.0909L91.8182 90.1818H101.909V160H94V106.955H93.3182L71.5 160H63.8636L42.0455 106.955H41.3636V160H33.4545V90.1818Z" fill="white"/>
<path d="M118.773 188.182C117.955 188.182 117.25 187.989 116.659 187.602C116.068 187.216 115.614 186.684 115.295 186.006C114.977 185.328 114.818 184.553 114.818 183.682C114.818 182.795 114.981 182.013 115.307 181.335C115.636 180.653 116.095 180.121 116.682 179.739C117.273 179.352 117.962 179.159 118.75 179.159C119.364 179.159 119.917 179.273 120.409 179.5C120.902 179.727 121.305 180.045 121.619 180.455C121.934 180.864 122.129 181.341 122.205 181.886H120.864C120.761 181.489 120.534 181.136 120.182 180.83C119.833 180.519 119.364 180.364 118.773 180.364C118.25 180.364 117.792 180.5 117.398 180.773C117.008 181.042 116.703 181.422 116.483 181.915C116.267 182.403 116.159 182.977 116.159 183.636C116.159 184.311 116.265 184.898 116.477 185.398C116.693 185.898 116.996 186.286 117.386 186.562C117.78 186.839 118.242 186.977 118.773 186.977C119.121 186.977 119.438 186.917 119.722 186.795C120.006 186.674 120.246 186.5 120.443 186.273C120.64 186.045 120.78 185.773 120.864 185.455H122.205C122.129 185.97 121.941 186.434 121.642 186.847C121.347 187.256 120.955 187.581 120.466 187.824C119.981 188.062 119.417 188.182 118.773 188.182ZM127.71 188.182C126.922 188.182 126.231 187.994 125.636 187.619C125.045 187.244 124.583 186.72 124.25 186.045C123.92 185.371 123.756 184.583 123.756 183.682C123.756 182.773 123.92 181.979 124.25 181.301C124.583 180.623 125.045 180.097 125.636 179.722C126.231 179.347 126.922 179.159 127.71 179.159C128.498 179.159 129.188 179.347 129.778 179.722C130.373 180.097 130.835 180.623 131.165 181.301C131.498 181.979 131.665 182.773 131.665 183.682C131.665 184.583 131.498 185.371 131.165 186.045C130.835 186.72 130.373 187.244 129.778 187.619C129.188 187.994 128.498 188.182 127.71 188.182ZM127.71 186.977C128.309 186.977 128.801 186.824 129.188 186.517C129.574 186.21 129.86 185.807 130.045 185.307C130.231 184.807 130.324 184.265 130.324 183.682C130.324 183.098 130.231 182.555 130.045 182.051C129.86 181.547 129.574 181.14 129.188 180.83C128.801 180.519 128.309 180.364 127.71 180.364C127.112 180.364 126.619 180.519 126.233 180.83C125.847 181.14 125.561 181.547 125.375 182.051C125.189 182.555 125.097 183.098 125.097 183.682C125.097 184.265 125.189 184.807 125.375 185.307C125.561 185.807 125.847 186.21 126.233 186.517C126.619 186.824 127.112 186.977 127.71 186.977ZM137.007 188.182C136.28 188.182 135.638 187.998 135.081 187.631C134.524 187.259 134.089 186.737 133.774 186.062C133.46 185.384 133.303 184.583 133.303 183.659C133.303 182.742 133.46 181.947 133.774 181.273C134.089 180.598 134.526 180.078 135.087 179.71C135.647 179.343 136.295 179.159 137.03 179.159C137.598 179.159 138.047 179.254 138.376 179.443C138.71 179.629 138.964 179.841 139.138 180.08C139.316 180.314 139.454 180.508 139.553 180.659H139.666V176.364H141.007V188H139.712V186.659H139.553C139.454 186.818 139.314 187.019 139.132 187.261C138.95 187.5 138.691 187.714 138.354 187.903C138.017 188.089 137.568 188.182 137.007 188.182ZM137.189 186.977C137.727 186.977 138.181 186.837 138.553 186.557C138.924 186.273 139.206 185.881 139.399 185.381C139.592 184.877 139.689 184.295 139.689 183.636C139.689 182.985 139.594 182.415 139.405 181.926C139.215 181.434 138.935 181.051 138.564 180.778C138.193 180.502 137.734 180.364 137.189 180.364C136.621 180.364 136.147 180.509 135.768 180.801C135.393 181.089 135.111 181.481 134.922 181.977C134.736 182.47 134.643 183.023 134.643 183.636C134.643 184.258 134.738 184.822 134.928 185.33C135.121 185.833 135.405 186.235 135.78 186.534C136.159 186.83 136.628 186.977 137.189 186.977ZM147.308 188.182C146.467 188.182 145.742 187.996 145.132 187.625C144.526 187.25 144.058 186.727 143.729 186.057C143.403 185.383 143.24 184.598 143.24 183.705C143.24 182.811 143.403 182.023 143.729 181.341C144.058 180.655 144.517 180.121 145.104 179.739C145.695 179.352 146.384 179.159 147.172 179.159C147.626 179.159 148.075 179.235 148.518 179.386C148.962 179.538 149.365 179.784 149.729 180.125C150.092 180.462 150.382 180.909 150.598 181.466C150.814 182.023 150.922 182.708 150.922 183.523V184.091H144.195V182.932H149.558C149.558 182.439 149.46 182 149.263 181.614C149.07 181.227 148.793 180.922 148.433 180.699C148.077 180.475 147.657 180.364 147.172 180.364C146.638 180.364 146.176 180.496 145.786 180.761C145.399 181.023 145.102 181.364 144.893 181.784C144.685 182.205 144.581 182.655 144.581 183.136V183.909C144.581 184.568 144.695 185.127 144.922 185.585C145.153 186.04 145.473 186.386 145.882 186.625C146.291 186.86 146.767 186.977 147.308 186.977C147.661 186.977 147.979 186.928 148.263 186.83C148.551 186.727 148.799 186.576 149.007 186.375C149.215 186.17 149.376 185.917 149.49 185.614L150.786 185.977C150.649 186.417 150.42 186.803 150.098 187.136C149.776 187.466 149.378 187.723 148.905 187.909C148.431 188.091 147.899 188.182 147.308 188.182Z" fill="#B60000"/>
</svg>
